<svg xmlns="http://www.w3.org/2000/svg" width="900" height="680" viewBox="0 0 900 680">
<defs>
  <linearGradient id="a" x1="0" x2="1"><stop stop-color="#f4d77c"/><stop offset="1" stop-color="#d4a63a"/></linearGradient>
  <linearGradient id="b" x1="0" x2="1"><stop stop-color="#ffffff"/><stop offset="1" stop-color="#e7f6f0"/></linearGradient>
</defs>
<rect x="90" y="80" width="720" height="500" rx="42" fill="#ffffff" opacity=".12"/>
<rect x="150" y="120" width="600" height="420" rx="34" fill="url(#b)"/>
<rect x="205" y="175" width="250" height="34" rx="17" fill="#0f5f4b" opacity=".16"/>
<rect x="205" y="235" width="430" height="22" rx="11" fill="#0f5f4b" opacity=".10"/>
<rect x="205" y="275" width="360" height="22" rx="11" fill="#0f5f4b" opacity=".10"/>
<rect x="205" y="335" width="200" height="130" rx="22" fill="#e9f6f1"/>
<path d="M255 395h100M305 355v80" stroke="#0f5f4b" stroke-width="18" stroke-linecap="round" opacity=".8"/>
<rect x="435" y="335" width="240" height="130" rx="22" fill="url(#a)"/>
<path d="M490 375h130M490 410h90" stroke="#0f5f4b" stroke-width="18" stroke-linecap="round" opacity=".75"/>
<circle cx="705" cy="140" r="70" fill="#25d366"/>
<path d="M675 115c15 38 45 60 70 70" fill="none" stroke="#fff" stroke-width="18" stroke-linecap="round"/>
<circle cx="660" cy="510" r="92" fill="#0f5f4b"/>
<path d="M620 505l28 28 58-68" fill="none" stroke="#f4d77c" stroke-width="22" stroke-linecap="round" stroke-linejoin="round"/>
</svg>